<?xml version="1.0" encoding="utf-8"?>
<!-- Generator: Adobe Illustrator 17.0.0, SVG Export Plug-In . SVG Version: 6.00 Build 0)  -->
<!DOCTYPE svg PUBLIC "-//W3C//DTD SVG 1.1//EN" "http://www.w3.org/Graphics/SVG/1.1/DTD/svg11.dtd">
<svg version="1.1" id="Layer_1" xmlns="http://www.w3.org/2000/svg" xmlns:xlink="http://www.w3.org/1999/xlink" x="0px" y="0px"
	 width="416px" height="270px" viewBox="0 0 416 270" enable-background="new 0 0 416 270" xml:space="preserve">
<g>
	<rect x="365.167" y="13.624" fill="#FFFFFF" width="35.717" height="178.582"/>
	<rect x="293.734" y="13.624" fill="#FFFFFF" width="35.716" height="178.582"/>
	<rect x="222.301" y="13.624" fill="#FFFFFF" width="35.717" height="178.582"/>
	<rect x="8.002" y="156.49" fill="#FFFFFF" width="178.582" height="35.716"/>
	<rect x="8.002" y="85.057" fill="#FFFFFF" width="178.582" height="35.716"/>
	<rect x="8.002" y="13.624" fill="#FFFFFF" width="178.582" height="35.716"/>
	<g>
		<path fill="#FFFFFF" d="M17.108,252.858c3.596,0,5.432-1.642,5.432-4.298v-0.353c0-2.853-2.149-4.104-5.393-4.415
			c-4.495-0.47-8.599-2.228-8.599-7.465v-0.823c0-4.415,2.54-7.542,8.519-7.542c4.808,0,7.504,2.306,8.521,5.472l-3.674,1.055
			c-0.626-1.759-2.072-3.047-4.847-3.047c-3.361,0-4.768,1.796-4.768,4.142v0.313c0,3.127,2.268,3.908,5.395,4.298
			c4.181,0.509,8.636,2.032,8.636,7.504v1.017c0,4.689-3.127,7.659-9.184,7.659c-4.808,0-8.129-2.462-9.146-5.627l3.634-1.134
			C12.418,251.373,14.372,252.858,17.108,252.858"/>
		<path fill="#FFFFFF" d="M54.586,244.181c3.049,0,4.729-1.993,4.729-5.706v-0.819c0-3.713-1.679-5.706-4.729-5.706h-5.823v12.231
			L54.586,244.181L54.586,244.181z M44.973,228.47h9.614c5.276,0,8.521,3.362,8.521,8.676v1.838c0,5.276-3.245,8.676-8.521,8.676
			h-5.823v8.168h-3.791V228.47z"/>
		<path fill="#FFFFFF" d="M85.656,247.151c0,3.793,2.54,5.746,5.666,5.746c3.087,0,5.589-1.953,5.589-5.746v-10.044
			c0-3.751-2.502-5.744-5.589-5.744c-3.127,0-5.666,1.993-5.666,5.744V247.151z M81.826,236.599c0-5.393,4.221-8.676,9.457-8.676
			c5.238,0,9.459,3.283,9.459,8.676v11.099c0,5.355-4.221,8.678-9.459,8.678c-5.236,0-9.457-3.323-9.457-8.678V236.599z"/>
		<path fill="#FFFFFF" d="M123.877,241.68h5.823c3.049,0,4.729-1.993,4.729-4.651v-0.43c0-2.734-1.679-4.649-4.729-4.649h-5.823
			V241.68z M128.645,245.12h-4.768v10.708h-3.791V228.47h9.614c5.276,0,8.559,3.283,8.559,7.621v1.408c0,3.4-2.11,6.214-5.627,7.191
			l6.097,11.021l-4.064,0.508L128.645,245.12z"/>
	</g>
	<polygon fill="#FFFFFF" points="154.204,228.47 154.204,231.911 161.472,231.911 161.472,255.828 165.263,255.828 165.263,231.911
		172.535,231.911 172.535,228.47 	"/>
	<g>
		<path fill="#FFFFFF" d="M198.092,252.858c3.596,0,5.432-1.642,5.432-4.298v-0.353c0-2.853-2.149-4.104-5.393-4.415
			c-4.495-0.47-8.599-2.228-8.599-7.465v-0.823c0-4.415,2.54-7.542,8.519-7.542c4.808,0,7.504,2.306,8.521,5.472l-3.674,1.055
			c-0.626-1.759-2.072-3.047-4.847-3.047c-3.361,0-4.768,1.796-4.768,4.142v0.313c0,3.127,2.268,3.908,5.395,4.298
			c4.181,0.509,8.636,2.032,8.636,7.504v1.017c0,4.689-3.127,7.659-9.184,7.659c-4.808,0-8.129-2.462-9.146-5.627l3.634-1.134
			C193.401,251.373,195.356,252.858,198.092,252.858"/>
	</g>
	<polygon fill="#ED2127" points="223.807,228.588 231.623,255.827 235.531,255.827 240.769,233.59 246.084,255.827 249.994,255.827
		257.809,228.469 253.745,228.469 248.156,251.178 242.801,228.469 238.853,228.469 233.578,251.178 227.794,228.078 	"/>
	<g>
		<path fill="#ED2127" d="M277.974,247.151c0,3.793,2.54,5.746,5.666,5.746c3.087,0,5.589-1.953,5.589-5.746v-10.044
			c0-3.751-2.502-5.744-5.589-5.744c-3.127,0-5.666,1.993-5.666,5.744V247.151z M274.144,236.599c0-5.393,4.221-8.676,9.457-8.676
			c5.238,0,9.459,3.283,9.459,8.676v11.099c0,5.355-4.221,8.678-9.459,8.678c-5.236,0-9.457-3.323-9.457-8.678V236.599z"/>
		<path fill="#ED2127" d="M316.195,241.68h5.823c3.049,0,4.729-1.993,4.729-4.651v-0.43c0-2.734-1.679-4.649-4.729-4.649h-5.823
			V241.68z M320.963,245.12h-4.768v10.708h-3.791V228.47h9.614c5.276,0,8.559,3.283,8.559,7.621v1.408c0,3.4-2.11,6.214-5.627,7.191
			l6.097,11.021l-4.064,0.508L320.963,245.12z"/>
	</g>
	<polygon fill="#ED2127" points="349.453,228.47 349.453,255.828 365.163,255.828 365.163,252.388 353.244,252.388 353.244,228.47
		"/>
	<g>
		<path fill="#ED2127" d="M392.363,252.389c3.049,0,4.73-2.032,4.73-5.746v-8.987c0-3.713-1.681-5.706-4.73-5.706h-5.823v20.439
			H392.363z M382.75,228.47h9.614c5.278,0,8.521,3.362,8.521,8.676v10.006c0,5.315-3.244,8.676-8.521,8.676h-9.614V228.47z"/>
	</g>
</g>
</svg>
